<svg width="209" height="160" viewBox="0 0 209 160" fill="none" xmlns="http://www.w3.org/2000/svg">
<path fill-rule="evenodd" clip-rule="evenodd" d="M141.893 4.78968L141.918 4.78165C151.542 1.74958 163.595 2.49285 174.825 6.12213C186.054 9.7509 196.012 16.1194 201.648 23.8393C205.086 28.7378 206.105 32.2932 205.251 36.1734C204.325 40.3881 201.1 45.5042 194.446 53.1498L194.439 53.1581L194.431 53.1664C182.919 66.5973 165.233 75.6921 151.825 75.6921C146.312 75.6921 139.074 74.092 133.183 71.9341C130.245 70.8581 127.786 69.6951 126.119 68.6182C125.373 68.1365 124.872 67.7269 124.567 67.4149C124.832 67.0222 125.28 66.4883 125.962 65.8185C127.375 64.4284 129.519 62.7194 132.306 60.7983C137.857 56.9709 145.655 52.509 154.481 48.3059L154.486 48.3035L169.506 41.2189L167.904 35.7328L156.836 37.1516C138.518 39.5541 119.38 53.2216 108.518 71.1299C96.7761 90.5032 94.1229 107.703 98.8009 130.216L98.8046 130.233C99.6511 134.183 100.347 137.307 101.071 139.749C101.791 142.178 102.611 144.2 103.833 145.806C106.405 149.185 110.218 149.947 114.878 150.879L114.961 150.896C119.065 151.716 125.72 154.017 131.577 156.662L139 159.5L140 156.5C140 156.5 121.2 149.193 115.528 148.059C105.603 146.074 105.036 145.507 101.633 129.627C97.0964 107.792 99.6485 91.3456 110.991 72.6302C121.483 55.3327 139.915 42.2887 157.212 40.0201L168.271 38.6023L153.242 45.6915C135.378 54.1984 121.483 63.8397 121.483 67.526C121.483 71.7795 139.915 78.5851 151.825 78.5851C166.286 78.5851 184.718 68.9439 196.628 55.0491C209.956 39.7366 211.373 32.6474 204.001 22.1555C191.807 5.42511 161.749 -4.49969 141.049 2.02233C118.931 8.54434 105.603 28.394 108.155 50.5121C109.29 60.1533 108.723 64.9739 105.887 67.2425C103.618 68.9439 99.6485 76.6001 97.0964 83.6893C96.8563 84.3443 96.6262 84.9731 96.4054 85.5767C93.2333 94.2479 91.9759 97.685 90.2347 97.9507C89.0914 98.1251 87.7394 96.932 85.4996 94.9556C85.2205 94.7093 84.9275 94.4508 84.6195 94.1812C80.6496 90.4949 78.9482 85.3907 78.9482 77.1673C78.9482 51.9299 53.9944 31.7967 25.9214 34.0653C1.5347 35.7667 -4.13661 44.2736 2.66897 68.6603C9.19098 91.6291 41.8011 109.494 63.0685 101.554C71.0083 98.4347 71.0083 98.1512 65.9042 92.4798C63.0685 89.3606 56.5465 84.2564 51.4423 81.1372C48.7419 79.4569 46.7399 78.0306 45.3934 76.8933C45.2083 76.737 45.0357 76.5861 44.8752 76.4408C42.3051 74.1126 42.885 73.2088 46.1556 74.1024C46.3651 74.1597 46.5857 74.2243 46.8173 74.2964C48.8597 74.9326 51.7523 76.1507 55.4122 78.018C76.3961 89.077 88.873 106.942 91.4251 130.194C93.1265 146.357 93.1265 146.641 85.4702 148.342C80.9331 149.477 72.9549 153.381 67 156.5C65.5535 156.5 63.7233 156.5 63 156.5L70 159.5C75.2249 157.074 82.6123 152.044 86.136 151.158C87.9315 150.759 89.7325 150.356 91.1506 149.656C92.8314 148.826 94.0742 147.548 94.7097 145.581C95.2576 143.885 95.2995 141.818 95.1783 139.461C95.0538 137.039 94.7243 133.9 94.3022 129.891L94.3009 129.878C91.6402 105.637 78.5638 86.9492 56.7611 75.4586L56.7441 75.4497L56.727 75.441C53.1812 73.6318 50.2512 72.3725 48.0342 71.6481C46.9374 71.2897 45.9146 71.0286 45.0266 70.9232C44.584 70.8706 44.0801 70.8447 43.5683 70.9048C43.0937 70.9605 42.3332 71.1214 41.6358 71.6734C40.8102 72.3271 40.3845 73.283 40.3769 74.2589C40.3705 75.0839 40.6589 75.752 40.8784 76.1607C41.3211 76.9851 42.0347 77.7524 42.7562 78.4228C44.2676 79.827 46.6642 81.5715 49.9139 83.5936L49.9238 83.5997L49.9337 83.6058C54.8949 86.6376 61.1674 91.5724 63.759 94.421C64.8634 95.6482 65.6075 96.4935 66.0895 97.1323C65.233 97.575 63.9522 98.0983 62.0342 98.852C52.4691 102.412 39.916 100.266 28.7251 94.1584C17.5496 88.0596 8.44158 78.3897 5.45378 67.8763C2.05144 55.682 2.18263 48.6668 5.00036 44.4679C7.78038 40.3251 13.9565 37.8001 26.1227 36.9513L26.1386 36.9502L26.1544 36.9489C52.915 34.7864 76.0551 53.9712 76.0551 77.1673C76.0551 85.7806 77.8443 91.8379 82.6509 96.3012L82.6823 96.3303L82.7144 96.3585C82.9793 96.5902 83.2434 96.8238 83.5056 97.0556C84.7681 98.1719 85.9866 99.2493 87.0315 99.9012C87.7042 100.321 88.6302 100.785 89.737 100.852C90.9836 100.928 92.0674 100.484 92.9227 99.7711C93.6886 99.1328 94.2614 98.2924 94.7211 97.4779C95.1965 96.6355 95.6625 95.6155 96.1449 94.4509C96.9575 92.4891 97.9164 89.8677 99.1271 86.5578L99.129 86.5526L99.1305 86.5485C99.3494 85.95 99.5766 85.329 99.8126 84.6852L99.8185 84.6693C101.05 81.2473 102.626 77.6862 104.155 74.7991C104.92 73.3545 105.652 72.1175 106.302 71.1675C106.998 70.1512 107.453 69.6844 107.623 69.5569L107.659 69.5298L107.694 69.5016C109.911 67.7281 110.97 65.1254 111.378 62.0195C111.781 58.9585 111.603 55.0533 111.029 50.1788C108.645 29.5092 121.05 10.9357 141.867 4.79724L141.893 4.78968ZM66.5946 97.9171L66.594 97.9142C66.5927 97.9102 66.5896 97.9023 66.5842 97.8902C66.5899 97.9077 66.5946 97.9171 66.5946 97.9171ZM124.288 67.0747C124.288 67.0747 124.291 67.0803 124.297 67.0916C124.292 67.0803 124.288 67.0747 124.288 67.0747Z" fill="#7E8C49"/>
</svg>
